<svg id="Capa_1" enable-background="new 0 0 512 512" height="512" viewBox="0 0 512 512" width="512" xmlns="http://www.w3.org/2000/svg"><g><path d="m63.945 411.348c-7.32 0-14.222-3.534-18.396-9.547-28.718-41.374-45.549-91.622-45.549-145.801 0-141.385 114.615-256 256-256s256 114.615 256 256c0 54.402-16.969 104.839-45.903 146.31-3.966 5.684-10.491 9.038-17.422 9.038z" fill="#40c1fa"/><path d="m448.5 231.478c0 95.821-77.679 173.5-173.5 173.5s-173.5-77.679-173.5-173.5 77.679-173.5 173.5-173.5 173.5 77.679 173.5 173.5z" fill="#72d1fb"/><path d="m467.69 400c-39.794 58.387-103.113 99.459-176.319 109.576-.545.075-4.075-2.398-4.621-2.326-7.428.978-10.969 2.423-18.583 2.75-.607.026-2.216 1.811-2.824 1.833-3.101.111-6.215.167-9.343.167s-6.242-.056-9.343-.167c-1.082-.039-2.828-2.697-3.907-2.749-6.735-.326-8.245-.33-14.833-1.167-.934-.118-6.358 1.788-7.289 1.66-73.205-10.119-136.524-51.19-176.318-109.577z" fill="#6dc54a"/><path d="m276.805 509.004c-2.535.464-5.162.847-8.638.996-.607.026-2.216 1.811-2.824 1.833-3.101.111-6.215.167-9.343.167s-6.242-.056-9.343-.167c-1.082-.039-2.828-2.697-3.907-2.749-6.735-.326-8.245-.33-14.833-1.167-.934-.118-6.358 1.788-7.289 1.66-73.205-10.119-136.524-51.19-176.318-109.577h98.099c34.154 47.252 80.487 85.121 134.396 109.004z" fill="#5db33a"/><path d="m458.833 292.263c-3.473 21.399-22.037 37.737-44.417 37.737s-40.944-16.338-44.416-37.737c3.517-7.926 8.505-14.383 14.416-18.585 4.099 2.914 7.754 6.913 10.783 11.734 2.305-15.556 9.521-28.519 19.217-35.411 9.696 6.893 16.911 19.855 19.217 35.411 3.029-4.821 6.685-8.82 10.783-11.734 5.911 4.201 10.9 10.659 14.417 18.585z" fill="#f44545"/><path d="m250 120.545v164.455c0 8.284-6.716 15-15 15h-68.571c-8.284 0-15-6.716-15-15v-164.455c0-4.284 1.832-8.365 5.034-11.211l34.251-30.446v-38.888c0-5.523 4.477-10 10-10s10 4.477 10 10v38.889l34.251 30.446c3.203 2.846 5.035 6.926 5.035 11.21z" fill="#ffb52d"/><path d="m235 300h-25.477c-8.284 0-15-6.716-15-15v-164.455c0-4.284 1.832-8.364 5.034-11.211l2.421-2.152c11.567-10.282 28.998-10.282 40.565 0l2.422 2.153c3.202 2.846 5.034 6.926 5.034 11.211v164.454c.001 8.284-6.715 15-14.999 15z" fill="#ffc14f"/><path d="m182.333 77.333c0-5.523 4.477-10 10-10h15.333c5.523 0 10 4.477 10 10s-4.477 10-10 10h-15.333c-5.522 0-10-4.477-10-10zm67.667 42.667h-100c-5.523 0-10 4.477-10 10s4.477 10 10 10h100c5.523 0 10-4.477 10-10s-4.477-10-10-10z" fill="#ffd993"/><path d="m396.231 193.683c-5.858-5.858-5.858-15.355 0-21.213l49.497-49.498c5.858-5.858 15.355-5.858 21.213 0 5.858 5.858 5.858 15.355 0 21.213l-49.497 49.497c-5.857 5.859-15.355 5.859-21.213.001z" fill="#f1d39e"/><path d="m491.691 154.792c-9.763 9.763-25.592 9.763-35.355 0-3.98-3.98-6.337-8.967-7.072-14.141-5.174-.735-10.161-3.092-14.141-7.072-9.763-9.763-9.763-25.592 0-35.355s25.592-9.763 35.355 0c3.98 3.98 6.337 8.967 7.072 14.141 5.174.735 10.161 3.092 14.141 7.072 9.763 9.763 9.763 25.592 0 35.355z" fill="#f5e0bc"/><path d="m398.653 260.37c4.577 26.33-3.301 54.401-23.634 74.734-34.269 34.269-90.519 33.16-123.365-3.327-29.596-32.877-28.74-83.64 1.874-115.571 20.572-21.457 49.543-29.737 76.597-24.842 24.753 4.479 50.158-2.946 67.945-20.733l1.697-1.697 21.213 21.213-.93.93c-18.143 18.143-25.792 44.013-21.397 69.293z" fill="#df9d28"/><path d="m264.418 343.389c-4.54-3.361-8.821-7.231-12.764-11.612-29.596-32.876-28.74-83.64 1.874-115.571 20.572-21.457 49.543-29.737 76.597-24.842 24.753 4.479 50.158-2.946 67.945-20.733l1.698-1.697 10.879 10.879c-15.371 17.639-37.417 28.416-61.252 30.074-31.744 2.207-61.887 19.741-78.858 49.666-14.957 26.372-16.327 57.182-6.119 83.836z" fill="#c88a1d"/><path d="m324.914 222.573-49.498 49.498c-3.905 3.905-10.237 3.905-14.142 0-3.905-3.905-3.905-10.237 0-14.142l49.498-49.498c3.905-3.905 10.237-3.905 14.142 0s3.905 10.237 0 14.142zm56.569 42.427c-3.905-3.905-10.237-3.905-14.142 0l-49.498 49.498c-3.905 3.905-3.905 10.237 0 14.142 3.905 3.905 10.237 3.905 14.142 0l49.498-49.498c3.905-3.905 3.905-10.237 0-14.142zm-14.142-42.427c-3.905-3.905-10.237-3.905-14.142 0l-63.64 63.64c-3.905 3.905-3.905 10.237 0 14.142s10.237 3.905 14.142 0l63.64-63.64c3.905-3.904 3.905-10.236 0-14.142z" fill="#865b47"/><path d="m211 140v130c0 16.569-13.431 30-30 30h-92c-16.569 0-30-13.431-30-30v-130c0-16.569 13.431-30 30-30h3c11.046 0 20-8.954 20-20v-50.714c0-11.046 8.954-20 20-20h6c11.046 0 20 8.954 20 20v50.714c0 11.046 8.954 20 20 20h3c16.569 0 30 13.431 30 30z" fill="#f44545"/><path d="m86.083 299.859c-15.199-1.466-27.083-14.275-27.083-29.859v-130c0-16.569 13.431-30 30-30h3c11.046 0 20-8.954 20-20v-50.714c0-11.046 8.954-20 20-20h6c3.138 0 6.107.723 8.75 2.011-6.661 3.246-11.25 10.081-11.25 17.989v66.344c0 11.046-8.954 20-20 20h-3c-16.569 0-30 13.431-30 30v130c0 5.149 1.298 9.995 3.583 14.229z" fill="#d63030"/><path d="m155.5 60h-41c-5.523 0-10-4.477-10-10v-40c0-5.523 4.477-10 10-10h41c5.523 0 10 4.477 10 10v40c0 5.523-4.477 10-10 10z" fill="#ffb52d"/><path d="m155.5 60h-22c-5.523 0-10-4.477-10-10v-40c0-5.523 4.477-10 10-10h22c5.523 0 10 4.477 10 10v40c0 5.523-4.477 10-10 10z" fill="#ffc14f"/><path d="m90 215v-21c0-24.853 20.147-45 45-45 24.853 0 45 20.147 45 45v21c0 24.853-20.147 45-45 45-24.853 0-45-20.147-45-45z" fill="#af2727"/><path d="m105 203.678c4.099 2.914 7.754 6.913 10.783 11.734 2.306-15.556 9.521-28.519 19.217-35.411 9.696 6.893 16.911 19.855 19.217 35.411 3.029-4.821 6.684-8.82 10.783-11.734 5.911 4.202 10.899 10.659 14.416 18.585-3.472 21.399-22.036 37.737-44.416 37.737-22.38 0-40.944-16.338-44.416-37.737 3.516-7.926 8.505-14.384 14.416-18.585z" fill="#ffe89c"/><path d="m169.416 241.753c-.162.998-.367 1.982-.611 2.949-8.247 9.379-20.335 15.298-33.805 15.298s-25.558-5.919-33.805-15.298c-.245-.968-.45-1.951-.611-2.949 2.725-6.141 6.591-11.145 11.171-14.401 3.176 2.258 6.009 5.356 8.356 9.092 1.786-12.054 7.377-22.098 14.89-27.439 7.513 5.341 13.104 15.385 14.89 27.439 2.347-3.735 5.179-6.834 8.356-9.092 4.579 3.256 8.444 8.26 11.169 14.401z" fill="#ffb52d"/><path d="m135 141.5c-28.949 0-52.5 23.552-52.5 52.5v21c0 28.948 23.551 52.5 52.5 52.5 28.948 0 52.5-23.552 52.5-52.5v-21c0-28.948-23.552-52.5-52.5-52.5zm37.5 73.5c0 20.678-16.822 37.5-37.5 37.5s-37.5-16.822-37.5-37.5v-21c0-20.678 16.822-37.5 37.5-37.5s37.5 16.822 37.5 37.5z" fill="#ffcd71"/><path d="m389.696 131.163c0 12.164-4.63 24.327-13.89 33.588-2.929 2.929-7.678 2.929-10.606 0-2.929-2.93-2.929-7.678 0-10.607 12.672-12.67 12.672-33.291 0-45.961-18.521-18.521-18.521-48.654 0-67.176 2.929-2.929 7.678-2.929 10.606 0 2.929 2.93 2.929 7.678 0 10.607-12.672 12.67-12.672 33.291 0 45.961 9.26 9.26 13.89 21.424 13.89 33.588zm-49.696-79.549c2.929-2.93 2.929-7.678 0-10.607s-7.678-2.929-10.606 0c-18.521 18.521-18.521 48.654 0 67.176 12.672 12.67 12.672 33.291 0 45.961-2.929 2.93-2.929 7.678 0 10.607s7.678 2.929 10.606 0c9.26-9.261 13.89-21.424 13.89-33.588s-4.63-24.327-13.89-33.588c-12.672-12.67-12.672-33.291 0-45.961zm-35.807 0c2.929-2.93 2.929-7.678 0-10.607s-7.678-2.929-10.606 0c-18.521 18.521-18.521 48.654 0 67.176 12.672 12.67 12.672 33.291 0 45.961-2.929 2.93-2.929 7.678 0 10.607s7.678 2.929 10.606 0c9.26-9.261 13.89-21.424 13.89-33.588s-4.63-24.327-13.89-33.588c-12.672-12.67-12.672-33.291 0-45.961zm-45.36 240.649c-3.473 21.399-22.037 37.737-44.417 37.737s-40.944-16.338-44.416-37.737c3.517-7.926 8.505-14.383 14.416-18.585 4.099 2.914 7.754 6.913 10.783 11.734 2.305-15.556 9.521-28.519 19.217-35.411 9.696 6.893 16.911 19.855 19.217 35.411 3.029-4.821 6.685-8.82 10.783-11.734 5.911 4.201 10.9 10.659 14.417 18.585z" fill="#fff5f5"/><path d="m465.279 296.348h-418.558c26.661 58.632 73.246 104.48 130.043 126.906l65.094 65.094-21.229 21.229c8.549 1.181 17.232 1.941 26.028 2.256l9.343-9.343 9.343 9.343c8.796-.316 17.479-1.075 26.028-2.256l-21.229-21.229 65.094-65.094c56.797-22.426 103.382-68.275 130.043-126.906zm-209.279 177.858-39.501-39.501c12.84 2.395 26.038 3.643 39.501 3.643s26.661-1.248 39.501-3.643z" fill="#0a3575"/><path d="m131.545 296.348h333.734c-26.733 58.792-73.5 104.73-130.507 127.089-23.367 9.165-49.352 9.165-72.72 0-57.008-22.359-103.774-68.298-130.507-127.089z" fill="#0a4499"/><path d="m482 308.348h-452c-5.523 0-10-4.477-10-10 0-5.523 4.477-10 10-10h452c5.523 0 10 4.477 10 10 0 5.523-4.477 10-10 10zm-121.881 41.501c-19.631 19.631-31 40.089-25.394 45.695s26.065-5.763 45.695-25.394c19.631-19.631 31-40.089 25.394-45.695s-26.065 5.763-45.695 25.394z" fill="#2476ed"/><path d="m482 308.348h-354.11c-5.523 0-10-4.477-10-10s4.477-10 10-10h354.11c5.523 0 10 4.477 10 10s-4.477 10-10 10z" fill="#5596fb"/></g></svg>