<?xml version="1.0" encoding="iso-8859-1"?>
<!-- Generator: Adobe Illustrator 19.0.0, SVG Export Plug-In . SVG Version: 6.00 Build 0)  -->
<svg version="1.1" id="Capa_1" xmlns="http://www.w3.org/2000/svg" xmlns:xlink="http://www.w3.org/1999/xlink" x="0px" y="0px"
	 viewBox="0 0 468.293 468.293" style="enable-background:new 0 0 468.293 468.293;" xml:space="preserve">
<path style="fill:#D5D6DB;" d="M401.487,167.49l65.74-95.701l-8.856-8.856L350.803,170.501l-12.617-12.617L445.754,50.316
	l-9.731-9.731L328.455,148.153l-9.382-9.382L426.641,31.203l-9.731-9.731L309.343,129.041l-12.617-12.617L404.294,8.856L395.438,0
	l-95.701,65.74c-25.459,17.489-41.137,45.511-44.269,76.239c-2.294,22.495-12.58,50.854-43.437,77.297l-66.338,63.01L9.194,418.784
	c-10.838,10.838-10.838,28.41,0,39.248l0,0c10.838,10.838,28.41,10.838,39.248,0L184.94,321.534l63.01-66.338
	c26.443-30.857,54.803-41.144,77.297-43.437C355.976,208.627,383.998,192.949,401.487,167.49z"/>
<path style="fill:#E1E6E9;" d="M48.987,154.622l180.951,180.951c10.449,10.449,27.391,10.449,37.841,0l55.237-55.237L42.68,0
	C-1.759,44.44,4.548,110.183,48.987,154.622z"/>
<path style="fill:#D5D6DB;" d="M273.651,329.701l80.964,80.964c13.026,13.026,22.376,28.906,31.017,45.175
	c1.043,1.964,2.364,3.774,3.974,5.384c11.764,11.764,34.095,8.508,49.876-7.273c15.782-15.782,19.038-38.112,7.273-49.876
	L323.016,280.336L273.651,329.701z"/>
<g>
	<path style="fill:#EBF0F3;" d="M42.68,0C-1.759,44.44,4.548,110.183,48.987,154.622l180.951,180.951
		c10.449,10.449,27.391,10.449,37.841,0l6.307-6.307c-10.449,10.449-27.391,10.449-37.841,0L55.294,148.316
		C13.002,106.024,5.349,44.478,43.001,0.321L42.68,0L42.68,0z"/>
	<path style="fill:#EBF0F3;" d="M13.548,443.724c-0.256,0-0.524-0.03-0.787-0.101c-1.665-0.433-2.671-2.137-2.238-3.805
		c3.957-15.235,22.744-30.11,23.543-30.738c1.348-1.061,3.311-0.835,4.384,0.53c1.061,1.354,0.823,3.317-0.53,4.381
		c-0.177,0.14-17.927,14.21-21.348,27.393C16.207,442.791,14.938,443.724,13.548,443.724z"/>
</g>
<g>
</g>
<g>
</g>
<g>
</g>
<g>
</g>
<g>
</g>
<g>
</g>
<g>
</g>
<g>
</g>
<g>
</g>
<g>
</g>
<g>
</g>
<g>
</g>
<g>
</g>
<g>
</g>
<g>
</g>
</svg>
